P2
24 7
255
0  0  0  0  0  0  0   0   0   0   0  0  0   0   0   0   0  0   0   0   0   0   0  0
0 51 51 51 51  0  0 119 119 119 119  0  0 187 187 187 187  0   0 255 255 255 255  0
0 51  0  0  0  0  0 119   0   0   0  0  0 187   0   0   0  0   0 255   0   0 255  0
0 51 51 51  0  0  0 119 119 119   0  0  0 187 187 187   0  0   0 255 255 255 255  0
0 51  0  0  0  0  0 119   0   0   0  0  0 187   0   0   0  0   0 255   0   0   0  0
0 51  0  0  0  0  0 119 119 119 119  0  0 187 187 187 187  0   0 255   0   0   0  0
0  0  0  0  0  0  0   0   0   0   0  0  0   0   0   0   0  0   0   0   0   0   0  0