<svg id="Layer_3" data-name="Layer 3" xmlns="http://www.w3.org/2000/svg" width="1736.63" height="1738.298" viewBox="0 0 1736.63039 1738.29807">
  <defs>
    <style>
      .cls-1 { fill: none; } .cls-2 { fill: #081b28; } .cls-3 { clip-path: url(#clip-path); } .cls-4 { fill: #fcee21; } .cls-5 { fill: #b6d134; } .cls-6 { fill: #35a849; } .cls-7 { fill: #069d7e; } .cls-8 { fill: #085ba7; } .cls-9 { fill: #3f2f84; } .cls-10 { fill: #5f2c83; } .cls-11 { fill: #7e2982; } .cls-12 { fill: #cb202d; } .cls-13 { fill: #e54b27; } .cls-14 { fill: #ed7125; } .cls-15 { fill: #f7ab1b; } .cls-16 { clip-path: url(#clip-path-2); } .cls-17 { clip-path: url(#clip-path-3); }
    </style>
    <clipPath id="clip-path" transform="translate(217.117 178.953)">
      <path id="path30" class="cls-1" d="M1091.92 389.076v-109.86H932.67v109.86h-15.343l-66.054-109.86h-399.9l-66.046 109.86H180.21v631.707h939.58V389.076h-27.87zM651.328 467.13c130.85 0 237.31 104.92 237.31 233.877s-106.46 233.876-237.31 233.876c-130.854 0-237.31-104.918-237.31-233.876S520.473 467.13 651.327 467.13z"/>
    </clipPath>
    <clipPath id="clip-path-2" transform="translate(217.117 178.953)">
      <path id="path3375" class="cls-1" d="M822.35 711.075a184.156 184.156 0 0 0 1.084-19.078 178.996 178.996 0 0 0-1.105-19.1l-47.393-16.866a130.408 130.408 0 0 0-11.208-27.012l21.548-45.33a175.172 175.172 0 0 0-27.034-27.035l-45.397 21.55a129.653 129.653 0 0 0-26.948-11.144l-16.822-47.392a165.318 165.318 0 0 0-38.177 0l-16.866 47.392a129.088 129.088 0 0 0-26.99 11.143l-45.354-21.55a175.168 175.168 0 0 0-27.034 27.035l21.55 45.33a129.72 129.72 0 0 0-11.143 27.013l-47.413 16.867a179.022 179.022 0 0 0-1.084 19.1 173.465 173.465 0 0 0 1.105 19.1l47.414 16.865a128.886 128.886 0 0 0 11.143 26.99l-21.55 45.354a174.214 174.214 0 0 0 27.035 27.035l45.33-21.55a130.978 130.978 0 0 0 27.014 11.166l16.866 47.412A184.156 184.156 0 0 0 650 865.452a178.986 178.986 0 0 0 19.1-1.105l16.866-47.435a128.886 128.886 0 0 0 26.99-11.143l45.354 21.55a174.214 174.214 0 0 0 27.034-27.036l-21.55-45.353a133.33 133.33 0 0 0 11.166-26.99l47.39-16.865zM650 778.715a86.717 86.717 0 1 1 86.718-86.718A86.72 86.72 0 0 1 650 778.715z"/>
    </clipPath>
    <clipPath id="clip-path-3" transform="translate(217.117 178.953)">
      <circle id="circle3377" class="cls-1" cx="650" cy="692.007" r="43.359"/>
    </clipPath>
  </defs>
  <path class="cls-2" d="M262.117 178.953h1210a45 45 0 0 1 45 45v1210a45 45 0 0 1-45 45h-1210a45 45 0 0 1-45-45v-1210a45 45 0 0 1 45-45z"/>
  <g class="cls-3">
    <path id="path6" class="cls-4" d="M1706.887 642.683zM1095.762 30.1L869.597 867.034 645.244 29.744a862.833 862.833 0 0 1 450.518.357zm-1.814 1674.22z"/>
    <path id="path8" class="cls-5" d="M1482.534 254.095l-.01-.012zm-835.54-224.95l222.603 837.888-612.938-612.94A862.826 862.826 0 0 1 646.995 29.146zm835.543 1450.828l.01-.01z"/>
    <path id="path10" class="cls-6" d="M1093.947 29.743zm612.94 1061.64zm-1061.64 612.94zM257.874 252.703l611.723 614.33-837.29-224.35a862.826 862.826 0 0 1 225.567-389.98z"/>
    <path id="path12" class="cls-7" d="M645.247 29.743l-.01.003.01-.002zm1061.64 612.94zm-612.94 1061.64zM32.667 640.867l836.93 226.166-837.29 224.352a862.84 862.84 0 0 1 .357-450.517z"/>
    <path id="path14" class="cls-8" d="M1482.534 254.095l-.01-.012zm-1225.875 0l-.01.01zM1482.533 1479.97l-.01.01zM869.598 867.034l-612.94 612.936a862.816 862.816 0 0 1-224.95-390.336l837.89-222.6z"/>
    <path id="path16" class="cls-9" d="M1093.947 29.743zm-224.35 837.29l-224.35 837.29a862.8 862.8 0 0 1-389.98-225.568z"/>
    <path id="path18" class="cls-10" d="M645.247 29.743l-.01.003.01-.002zm1061.64 612.948zm-837.29 224.345l224.352 837.29a862.836 862.836 0 0 1-450.517-.357l226.163-836.934z"/>
    <path id="path20" class="cls-11" d="M1482.534 1479.97a862.806 862.806 0 0 1-390.336 224.95l-222.6-837.887 612.938 612.938zm0-1225.875l.018.017-.017-.018z"/>
    <path id="path22" class="cls-12" d="M1093.947 29.743l.01.003-.01-.002zm612.94 1061.64a862.79 862.79 0 0 1-225.568 389.98l-611.723-614.33zM645.26 1704.325z"/>
    <path id="path24" class="cls-13" d="M1706.887 642.683a862.832 862.832 0 0 1-.357 450.515L869.597 867.033zm-612.94 1061.64z"/>
    <path id="path26" class="cls-14" d="M256.94 254.355l-.01.01zM1707.116 644.53l-837.52 222.503 612.667-612.668a862.426 862.426 0 0 1 224.85 390.165h.003z"/>
    <path id="path28" class="cls-15" d="M1483.927 255.31l-614.33 611.723 224.35-837.29a862.81 862.81 0 0 1 389.98 225.57v-.003zM645.26 1704.326zm1061.627-612.94z"/>
  </g>
  <g class="cls-16">
    <path id="path6-2" data-name="path6" class="cls-4" d="M1704.408 646.6zM1093.283 34.017L867.118 870.95 642.765 33.66a862.833 862.833 0 0 1 450.518.358zm-1.814 1674.22z"/>
    <path id="path8-2" data-name="path8" class="cls-5" d="M1480.055 258.012l-.01-.012zm-835.54-224.95L867.118 870.95 254.18 258.01A862.826 862.826 0 0 1 644.517 33.063zm835.543 1450.828l.01-.01z"/>
    <path id="path10-2" data-name="path10" class="cls-6" d="M1091.468 33.66zm612.94 1061.64zm-1061.64 612.94zM255.395 256.62l611.723 614.33L29.828 646.6a862.826 862.826 0 0 1 225.567-389.98z"/>
    <path id="path12-2" data-name="path12" class="cls-7" d="M642.768 33.66l-.01.003.01-.002zm1061.64 612.94zm-612.94 1061.64zM30.188 644.784l836.93 226.166-837.29 224.352a862.84 862.84 0 0 1 .357-450.517z"/>
    <path id="path14-2" data-name="path14" class="cls-8" d="M1480.055 258.012l-.01-.012zm-1225.875 0l-.01.01zm1225.875 1225.875l-.01.01zM867.12 870.95l-612.94 612.937A862.816 862.816 0 0 1 29.23 1093.55l837.888-222.6z"/>
    <path id="path16-2" data-name="path16" class="cls-9" d="M1091.468 33.66zm-224.35 837.29l-224.35 837.29a862.8 862.8 0 0 1-389.98-225.568z"/>
    <path id="path18-2" data-name="path18" class="cls-10" d="M642.768 33.66l-.01.003.01-.002zm1061.64 612.948zm-837.29 224.344l224.352 837.29a862.836 862.836 0 0 1-450.516-.357L867.117 870.95z"/>
    <path id="path20-2" data-name="path20" class="cls-11" d="M1480.055 1483.887a862.806 862.806 0 0 1-390.336 224.95L867.12 870.95l612.937 612.938zm0-1225.875l.018.017-.017-.02z"/>
    <path id="path22-2" data-name="path22" class="cls-12" d="M1091.468 33.66l.01.003-.01-.002zm612.94 1061.64a862.79 862.79 0 0 1-225.568 389.98L867.118 870.95zM642.78 1708.242z"/>
    <path id="path24-2" data-name="path24" class="cls-13" d="M1704.408 646.6a862.832 862.832 0 0 1-.357 450.515L867.12 870.95zm-612.94 1061.64z"/>
    <path id="path26-2" data-name="path26" class="cls-14" d="M254.46 258.272l-.01.01zm1450.178 390.175L867.118 870.95l612.667-612.668a862.426 862.426 0 0 1 224.85 390.165h.003z"/>
    <path id="path28-2" data-name="path28" class="cls-15" d="M1481.448 259.227L867.118 870.95l224.35-837.29a862.81 862.81 0 0 1 389.98 225.57v-.003zM642.78 1708.243zm1061.628-612.94z"/>
  </g>
  <g class="cls-17">
    <path id="path6-3" data-name="path6" class="cls-4" d="M1704.323 646.913zM1093.198 34.33L867.033 871.264 642.68 33.974a862.833 862.833 0 0 1 450.518.357zm-1.814 1674.22z"/>
    <path id="path8-3" data-name="path8" class="cls-5" d="M1479.97 258.325l-.01-.012zM644.43 33.375l222.603 837.888-612.938-612.94A862.826 862.826 0 0 1 644.432 33.376zm835.543 1450.828l.01-.01z"/>
    <path id="path10-3" data-name="path10" class="cls-6" d="M1091.383 33.973zm612.94 1061.64zm-1061.64 612.94zM255.31 256.933l611.723 614.33-837.29-224.35a862.826 862.826 0 0 1 225.567-389.98z"/>
    <path id="path12-3" data-name="path12" class="cls-7" d="M642.683 33.973l-.01.003.01-.002zm1061.64 612.94zm-612.94 1061.64zM30.103 645.097l836.93 226.166-837.29 224.352a862.84 862.84 0 0 1 .357-450.517z"/>
    <path id="path14-3" data-name="path14" class="cls-8" d="M1479.97 258.325l-.01-.012zm-1225.875 0l-.01.01zM1479.97 1484.2l-.01.01zM867.034 871.264L254.094 1484.2a862.816 862.816 0 0 1-224.95-390.336l837.89-222.6z"/>
    <path id="path16-3" data-name="path16" class="cls-9" d="M1091.383 33.973zm-224.35 837.29l-224.35 837.29a862.8 862.8 0 0 1-389.98-225.568z"/>
    <path id="path18-3" data-name="path18" class="cls-10" d="M642.683 33.973l-.01.003.01-.002zm1061.64 612.948zm-837.29 224.345l224.352 837.29a862.836 862.836 0 0 1-450.516-.357L867.03 871.264z"/>
    <path id="path20-3" data-name="path20" class="cls-11" d="M1479.97 1484.2a862.806 862.806 0 0 1-390.336 224.95l-222.6-837.887 612.938 612.938zm0-1225.875l.018.017-.017-.018z"/>
    <path id="path22-3" data-name="path22" class="cls-12" d="M1091.383 33.973l.01.003-.01-.002zm612.94 1061.64a862.79 862.79 0 0 1-225.568 389.98l-611.722-614.33zM642.695 1708.555z"/>
    <path id="path24-3" data-name="path24" class="cls-13" d="M1704.323 646.913a862.832 862.832 0 0 1-.357 450.515L867.033 871.263zm-612.94 1061.64z"/>
    <path id="path26-3" data-name="path26" class="cls-14" d="M254.375 258.585l-.01.01zM1704.553 648.76l-837.52 222.503L1479.7 258.595a862.426 862.426 0 0 1 224.85 390.165h.003z"/>
    <path id="path28-3" data-name="path28" class="cls-15" d="M1481.363 259.54l-614.33 611.723 224.35-837.29a862.81 862.81 0 0 1 389.98 225.57v-.003zM642.695 1708.556zm1061.628-612.94z"/>
  </g>
</svg>
