<svg viewBox="0 0 1206 1206" xmlns="http://www.w3.org/2000/svg"><path fill="#e1e1e1" d="M562.96 0h82.33c2.98 1.89 6.71.59 10.02 1.07 3.48 2.18 7.94-.32 11.44 1.79 2.65.3 5.57-.43 7.99 1 2.66.28 5.55-.39 8.01.97 2.33.24 4.86-.23 6.99 1 2.33.23 4.82-.19 6.98.95 2 .2 4.08.11 5.98.92 1.68.26 3.42.37 5.02 1.07 2 .2 4.07.13 5.97.92 1.67.26 3.38.43 5 1 1.67.26 3.38.43 5 1 1.65.26 3.32.47 4.95.91 1.34.36 2.69.69 4.03 1.12 1.65.23 3.34.42 4.96.89 1.32.34 2.66.65 3.98 1.05 1.33.3 2.68.6 4.01.99 1.33.31 2.67.61 4 1 1.32.31 2.67.61 4 1 1.32.31 2.67.61 4 1 1.33.31 2.67.61 4 1.01 1.3.29 2.63.57 3.94.93 1 .36 2.01.74 3.03 1.12 1.32.26 2.65.53 3.97.88.99.35 1.98.71 2.98 1.08 1.01.33 2.03.67 3.04 1.03 1.32.27 2.66.53 3.98.89.99.35 1.99.71 2.99 1.09.99.31 1.99.63 3 .98.99.32 1.99.65 2.99 1.01 1 .31 2 .64 3.01.99.99.32 1.99.65 3 1 .99.32 1.99.65 3 1 .99.32 1.99.65 3 1 .99.31 2 .64 3 .98.95.33 1.9.68 2.86 1.05 1.69.75 3.44 1.42 5.17 2.12.47.09 1.41.26 1.88.35 1.92 1.06 3.98 1.84 6.07 2.53.95.31 1.91.65 2.86 1.01 1.37.58 2.76 1.14 4.2 1.58.5.26 1.5.77 1.99 1.03 1.9.92 3.87 1.66 5.83 2.45 1.36.55 2.74 1.08 4.16 1.53.51.23 1.54.7 2.06.93.93.53 1.86 1.07 2.81 1.61 1.36.51 2.73 1.02 4.14 1.44.51.25 1.52.74 2.03.99 1.99 1.01 3.98 2.02 5.98 3.05 2.28 1.11 4.69 1.95 7.06 2.89.49.27 1.47.81 1.95 1.08 1.33.67 2.66 1.33 4.01 1.99 1.33.67 2.66 1.34 4.03 1.98 2.41 1.17 4.72 2.56 6.95 4.07 1.34.64 2.68 1.3 4.03 1.94 3.1 1.49 6.15 3.08 8.98 5.06l2 .96c.52.23 1.54.7 2.05.93 1.67.98 3.28 2.06 4.97 3.03 1.7.95 3.32 2.05 4.97 3.1l2.08.84c2.69 1.61 5.22 3.49 7.94 5.08 2.77 1.49 5.28 3.41 8 5 26.62 16.8 51.87 35.85 75.39 56.71 3.78 2.51 6.26 6.5 10 9.07-.53 2.55 1.74 4.14 4.1 3.64 9.34 9.06 18.42 18.39 27.68 27.54 2.43 2.89 4.57 6.04 7.5 8.5 9.82 10.87 19.14 22.24 28.13 33.85 1.8 2.21 3.39 4.59 5.21 6.8.89 1.4 1.94 2.7 3 3.99 8.82 12.03 17.15 24.43 25.14 37.02.78 1.4 1.68 2.74 2.5 4.14 1.09 1.99 2.37 3.88 3.49 5.86.97 1.68 2.04 3.3 2.99 5 .98 1.67 2.06 3.3 3.07 4.97l.84 2.07c1.05 1.63 2.15 3.25 3.17 4.92.21.52.62 1.56.83 2.09.86 1.36 1.8 2.68 2.67 4.05.46.97.93 1.94 1.42 2.92.24.5.73 1.5.98 2 .26.49.77 1.49 1.02 1.99.24.51.7 1.52.94 2.03 1.3 2 2.61 4 3.77 6.11l.56 1.88c.23 3.32 1.21 6.8 4.3 8.56l.46.4c1.02 2.32 1.8 4.75 2.91 7.04 1.03 1.99 2.04 3.99 3.12 5.97 1.28 3.5 2.7 6.96 4.59 10.19.3.97.59 1.95.88 2.94.26.5.79 1.51 1.05 2.02.7 1.99 1.43 3.98 2.33 5.9.32.51.98 1.53 1.3 2.04.03.5.1 1.5.13 2 .34.51 1.01 1.53 1.35 2.04.28.98.57 1.97.86 2.97.63 1.72 1.26 3.43 2.01 5.11.36.94.72 1.89 1.07 2.86.31 1 .61 2.01.91 3.03.64 1.71 1.27 3.43 2.02 5.12.36.93.71 1.88 1.06 2.84.33 1 .65 2 .98 3.01.33.99.67 1.99 1 3 .33.99.66 1.99 1 3.01.33.98.67 1.98 1 2.99.33.99.67 1.99 1 3 .34.99.67 1.99 1.01 3 .33.99.65 1.99.98 3.01.36.98.72 1.97 1.09 2.97.33 1.31.59 2.65.86 3.99.38 1 .76 2 1.14 3.02.33 1.31.59 2.64.87 3.98.37 1 .74 2 1.12 3.02.35 1.3.62 2.62.93 3.94.38 1.31.68 2.65 1.01 4 .37 1.31.67 2.65 1 4 .37 1.31.67 2.65 1 4 .37 1.31.67 2.65 1 4 .37 1.31.67 2.65.99 4 .38 1.31.7 2.65 1.04 3.99.46 1.61.66 3.28.94 4.94.55 1.61.71 3.33.96 5.02.42 1.32.75 2.67 1.12 4.03.44 1.61.63 3.28.91 4.95.79 1.88.7 3.96.91 5.97.95 1.85.77 3.97 1 6 .93 1.86.77 3.98 1 6 .93 1.86.77 3.98 1 6 1.14 2.15.71 4.64.95 6.98 1.37 2.43.67 5.32.97 7.99 1.52 2.75.63 6.01.98 9 2.15 3.47-.4 7.97 1.81 11.44.42 3.3-.73 6.95.99 9.99.28 3.09-.49 6.42 1.08 9.28v78.33c-2.46 3.73.4 8.65-1.88 12.46-.37 2.99.57 6.26-1 9-.37 2.98.57 6.26-.98 9-.28 2.65.35 5.51-.92 7.98-.23 2.01-.05 4.16-1.04 6.02-.24 2.32.14 4.81-.96 6.98-.22 2-.07 4.12-1 6-.23 2-.05 4.13-1 5.99-.21 2-.12 4.08-.91 5.97-.28 1.68-.44 3.39-1 5.01-.27 1.67-.45 3.37-1 5-.27 1.67-.45 3.37-.99 4.99-.28 1.65-.48 3.32-.93 4.95-.35 1.32-.65 2.66-1.04 3.98-.34 1.35-.66 2.71-1.06 4.06-.25 1.65-.44 3.33-.91 4.96-.34 1.32-.65 2.66-1.03 3.98-.32 1.33-.62 2.68-1.01 4-.31 1.31-.59 2.63-.94 3.94-.37 1-.74 2.01-1.1 3.02-.3 1.34-.57 2.7-.94 4.04-.32 1.31-.61 2.63-.97 3.95-.35.98-.71 1.98-1.06 2.98-.34 1.01-.68 2.02-1.03 3.04-.29 1.32-.55 2.65-.89 3.97-.37.99-.73 1.98-1.09 2.98-.32 1-.64 2-.97 3.01-.35 1-.7 2.01-1.06 3.03-.28 1.32-.53 2.66-.86 3.99-.38.94-.76 1.89-1.15 2.84-.73 1.67-1.37 3.39-1.99 5.11-.31 1-.62 2.01-.94 3.03-.34.99-.67 1.99-1.02 3-.32.99-.64 2-.97 3-.35.95-.7 1.9-1.05 2.86-.74 1.64-1.39 3.33-2.05 5.01-.72 1.68-1.35 3.39-1.97 5.1-.29.98-.58 1.97-.88 2.96-.3.49-.9 1.45-1.2 1.94-.67 1.65-1.29 3.33-1.93 5-.88 2.05-1.65 4.14-2.47 6.22-.55.93-1.07 1.87-1.58 2.82-.26.99-.53 1.97-.81 2.97-.6 1.04-1.19 2.09-1.76 3.15-.77 1.62-1.46 3.27-1.96 5-.24.51-.72 1.52-.96 2.03-.69 1.32-1.37 2.65-2.02 4-.69 1.33-1.36 2.66-2 4.02-.26.48-.78 1.46-1.04 1.94-1.1 2.3-1.95 4.71-2.89 7.08-.26.49-.78 1.48-1.04 1.97-1.16 2.43-2.56 4.73-4.07 6.96-.23.5-.7 1.52-.94 2.02-.25.5-.76 1.5-1.02 2-.24.5-.74 1.51-.99 2.01-.25.5-.77 1.49-1.03 1.99-.22.52-.67 1.54-.89 2.06-1.01 1.66-2.1 3.27-3.15 4.92l-.88 2.04c-1.21 2.41-2.61 4.71-4.03 7.01-1.36 2.33-2.92 4.55-4.02 7.03-.94 1.68-2.01 3.28-2.97 4.96-2.11 3.81-4.84 7.23-7.02 11-6.51 10.69-13.91 20.79-21.11 31.02-11 14.87-22.41 29.49-34.76 43.25-3.7 5.55-9.55 9.21-13.15 14.85-8.42 8.56-16.91 17.08-25.5 25.47-1.83-.47-3.97.7-3.42 2.81-3.91 2.99-6.73 7.2-10.8 10.01-24.39 21.7-50.75 41.27-78.38 58.71-2.72 1.58-5.24 3.5-7.99 5.02-1.7.96-3.32 2.04-5.02 2.98-1.68.98-3.29 2.06-4.95 3.07l-2.08.84c-1.38.86-2.7 1.8-4.06 2.68-.99.44-1.98.9-2.95 1.36-1.64 1.02-3.23 2.11-4.89 3.09-1.38.6-2.73 1.26-4.07 1.93-1.35.66-2.69 1.34-4.01 2.04-.51.23-1.52.69-2.03.93-1.63 1.02-3.23 2.11-4.89 3.1-1.38.6-2.73 1.26-4.06 1.94-2.02.99-4.02 1.99-6.01 3.02-.5.24-1.5.74-2 .98-.51.26-1.52.79-2.03 1.05-.99.26-1.97.54-2.92.86-2.67 1.41-5.37 2.73-8.05 4.11-.51.24-1.52.72-2.03.96-1.73.5-3.39 1.2-5 1.98-.5.26-1.49.78-1.99 1.04-1.73.49-3.4 1.17-5.03 1.92-.5.33-1.52.98-2.03 1.3l-1.98.16c-.98.55-1.95 1.09-2.92 1.64-1.77.45-3.45 1.15-5.09 1.93-1.4.46-2.77 1.01-4.12 1.58-1.68.67-3.37 1.32-5.01 2.08-.97.33-1.93.65-2.89.97-2.08.69-4.13 1.47-6.06 2.53-.46.1-1.38.3-1.84.39-1.02.4-2.04.78-3.06 1.14-1.01.33-2.02.65-3.01.97-1.01.34-2.01.67-3 1.01-1.01.33-2.01.66-3 1-1.01.33-2.01.67-3 1-1.01.33-2.01.67-3.01 1-1 .34-1.99.67-2.99 1.01-1 .33-2.01.65-3.01.97-.99.37-1.98.73-2.97 1.1-1.33.33-2.67.59-4 .86l-3 1.14c-1.33.33-2.67.59-3.99.86-1.01.38-2.02.75-3.02 1.13-1.31.35-2.63.62-3.94.93-1.33.38-2.67.68-4 1.01-1.33.38-2.68.67-4 1-1.33.37-2.68.67-4.01 1-1.32.37-2.67.67-3.99 1-1.33.38-2.67.67-4 .99-1.32.38-2.66.7-3.98 1.04-1.63.45-3.3.66-4.95.94-1.62.55-3.34.71-5.02.97-1.34.4-2.69.74-4.03 1.11-1.92.61-3.94.63-5.92.83-1.6.67-3.34.8-5.03 1.07-1.89.8-3.97.71-5.97.92-1.86.95-3.99.77-5.99 1-1.87.94-4 .77-6.01 1-2.16 1.13-4.65.71-6.98.95-2.45 1.36-5.34.68-7.99.97-2.74 1.55-6.02.61-9 .98-3.48 2.14-7.96-.38-11.43 1.79-2.53.11-5.06.08-7.57.22-3.6 2.07-8.11-.32-11.71 1.87h-77.33c-4.06-2.53-9.33.47-13.45-1.88-3-.37-6.28.58-9.01-1-2.99-.37-6.27.58-9-.98-2.66-.27-5.51.34-7.98-.92-2.03-.23-4.17-.04-6.01-1.05-2.35-.25-4.87.22-7-1-2.33-.21-4.77.1-6.95-.87-1.69-.27-3.39-.43-5-.99-1.71-.28-3.44-.43-5.04-1.08-2.01-.22-4.08-.13-5.96-.93-1.69-.27-3.39-.43-5-.99-1.66-.27-3.33-.48-4.94-.91-1.36-.37-2.72-.71-4.04-1.12-1.67-.25-3.35-.42-4.96-.9-1.34-.34-2.68-.65-3.99-1.03-1.36-.34-2.72-.65-4.05-1.06-1.65-.25-3.29-.46-4.9-.84-1.01-.39-2.01-.78-3-1.17-1.36-.28-2.72-.55-4.05-.91-1.35-.34-2.69-.65-4-1.03-1.33-.31-2.64-.59-3.94-.93-1.01-.38-2.02-.75-3.02-1.13-1.34-.28-2.67-.53-3.98-.87-1.01-.36-2-.72-2.98-1.08-1.03-.34-2.04-.68-3.05-1.03-1.33-.29-2.66-.55-3.97-.89-1-.36-2-.73-2.98-1.09-1.02-.32-2.02-.65-3.01-.98-1.01-.33-2.01-.67-2.99-1.01-1.01-.33-2.02-.66-3.01-.99-1.01-.34-2.01-.67-2.99-1-1.02-.33-2.02-.66-3.01-1-1.01-.33-2.01-.66-3-1-1.01-.33-2.01-.65-3-.97-.96-.36-1.91-.71-2.85-1.07-1.68-.75-3.4-1.38-5.12-1.97-1.42-.47-2.79-1.02-4.16-1.57-1.24-.53-2.49-.99-3.72-1.5-1.69-.72-3.4-1.33-5.12-1.92-1.39-.46-2.73-1.01-4.07-1.56-1.86-1.01-3.85-1.77-5.83-2.49-2.64-1.38-5.43-2.42-8.19-3.5-2.48-1.45-5.11-2.58-7.82-3.47-1.08-.54-2.13-1.08-3.19-1.59-1.33-.69-2.66-1.36-3.99-2.01-1.34-.68-2.67-1.36-4.01-2-.49-.25-1.48-.75-1.98-1-.5-.24-1.5-.73-2-.97-1.63-.84-3.25-1.68-4.85-2.55-1.67-.67-3.36-1.27-5.05-1.83-1.37-.89-2.69-1.84-4.06-2.7l-2.04-.92c-1.34-.7-2.69-1.38-4.03-2.03-.5-.25-1.48-.76-1.98-1.02-.51-.22-1.54-.67-2.05-.89-1.68-1.01-3.29-2.11-4.93-3.16-.52-.21-1.55-.62-2.07-.83-1.68-1.02-3.29-2.12-4.93-3.17-.52-.21-1.55-.63-2.06-.85-1.67-1-3.29-2.08-4.97-3.05-2.77-1.51-5.29-3.42-7.99-5.02-1.71-.94-3.34-2.01-5.02-2.97-24.44-15.45-47.89-32.5-69.84-51.32-3.39-2.2-5.7-5.67-9.12-7.83-3.42-2.37-5.57-6.25-9.37-8.1l-.03-.35c.55-2.1-1.22-3.65-3.23-2.98-10.27-10.03-20.41-20.22-30.49-30.44-2.42-3.86-6.12-6.6-8.9-10.15-1.79-2.83-4.55-4.85-6.43-7.6-19-22.06-36.21-45.71-51.7-70.38-1.59-2.72-3.5-5.23-5.02-7.98-.97-1.69-2.04-3.32-2.98-5.01-.99-1.69-2.07-3.3-3.07-4.97-.21-.51-.63-1.55-.84-2.07-1.06-1.64-2.16-3.26-3.17-4.92-.21-.52-.62-1.55-.83-2.07-1.54-2.22-2.93-4.53-4.11-6.95-.63-1.37-1.28-2.71-1.92-4.05-1.19-2.42-2.71-4.64-4.1-6.92-.62-1.38-1.27-2.72-1.94-4.06-.66-1.34-1.33-2.67-2.01-3.99-.66-1.35-1.33-2.68-2-4-.66-1.36-1.33-2.69-2.01-4.01-.24-.51-.72-1.53-.96-2.03-.68-2.46-1.84-4.73-3.02-6.97-.53-1.07-1.08-2.12-1.6-3.17-.7-1.99-1.45-3.96-2.37-5.85-.55-1.06-1.1-2.11-1.64-3.15-.81-2.42-1.79-4.77-2.97-7.01-.65-1.68-1.27-3.36-1.96-5-.67-1.69-1.32-3.38-2.07-5.02-.34-.97-.67-1.93-.98-2.89-.69-2.09-1.47-4.14-2.53-6.07-.09-.46-.26-1.4-.35-1.87-.7-1.73-1.36-3.48-2.12-5.17-.37-.96-.72-1.91-1.05-2.86-.34-1.01-.66-2.01-.97-3-.36-1.01-.69-2.01-1.01-3-.35-1.01-.68-2.01-1-3-.35-1.01-.68-2.01-1-3.01-.35-1-.68-2-1-2.99-.35-1.01-.68-2.01-1-3-.35-1.01-.68-2.01-1-3-.35-1.01-.68-2.01-.98-3-.38-1-.74-2-1.09-2.99-.36-1.32-.62-2.66-.89-3.98-.36-1.01-.71-2.02-1.03-3.03-.37-1-.73-2-1.07-2.99-.36-1.31-.65-2.63-.94-3.94-.4-1.33-.71-2.67-1.03-3.99-.37-1.35-.65-2.71-.92-4.05-.38-1.02-.75-2.02-1.11-3.02-.37-1.31-.66-2.63-.98-3.93-.49-1.62-.67-3.31-.91-4.96-.42-1.34-.74-2.7-1.06-4.05-.39-1.33-.7-2.67-1.03-3.99-.49-1.62-.67-3.31-.9-4.96-.43-1.34-.77-2.69-1.12-4.03-.45-1.63-.65-3.3-.91-4.95-.58-1.62-.74-3.33-1-4.99-.8-1.9-.71-3.98-.91-5.98-.94-1.87-.79-3.99-1-6-.94-1.87-.79-3.99-1-6-.94-1.87-.78-3.99-1-6-1.14-2.16-.72-4.65-.95-6.98-1.38-2.44-.68-5.34-.97-7.99-2-3.18.26-7.27-1.77-10.43-.12-2.53-.1-5.06-.22-7.57-1.76-3.38-.48-7.37-.99-11.01-2-3.26.19-7.42-1.88-10.7V564l1.01-.03c.24-3.22-.8-6.77.87-9.72.45-3.31-.7-6.96 1-10 .36-2.99-.58-6.27 1-9 .35-2.99-.57-6.26.98-9 .28-2.67-.4-5.55.97-7.99.24-2.35-.21-4.86 1-7 .22-2.34-.18-4.83.95-6.98.21-2.03.07-4.14.99-6.01.21-2.01.13-4.08.92-5.96.26-1.69.43-3.39 1-5 .26-1.69.45-3.39 1-5 .26-1.69.43-3.39 1-5 .26-1.66.45-3.33.93-4.94.32-1.34.64-2.68 1.03-3.99.32-1.37.64-2.73 1.06-4.05.24-1.67.43-3.35.9-4.97.33-1.33.65-2.67 1.04-3.98.31-1.35.61-2.69 1.01-4 .29-1.33.57-2.65.93-3.95.36-1.01.74-2.01 1.13-3.01.26-1.34.51-2.67.86-3.98.37-1.01.75-2.02 1.14-3.01.26-1.35.51-2.68.86-3.99.37-1.01.74-2.02 1.14-3.01.26-1.35.51-2.68.86-3.99.35-1 .72-2 1.1-2.98.3-1.01.63-2.01.98-3 .32-1.02.65-2.02 1-3.01.32-1.01.65-2 1-2.99.32-1.01.65-2.01 1-3.01.32-1 .65-2 1-2.99.32-1.01.65-2.02 1-3.01.32-1.01.65-2.01 1-3 .31-1.01.64-2.01.98-3 .33-.96.69-1.91 1.06-2.86.73-1.68 1.38-3.4 2.01-5.11.28-1 .58-1.98.89-2.95.28-.5.85-1.5 1.13-2 .29-.99.61-1.96.95-2.92.75-1.68 1.38-3.4 1.99-5.13.44-1.38.98-2.73 1.54-4.05.87-1.6 1.61-3.27 2.08-5.02.26-.5.78-1.49 1.03-1.98.77-1.63 1.47-3.3 1.97-5.02.26-.5.77-1.49 1.03-1.98.77-1.63 1.47-3.29 1.98-5.01.24-.51.72-1.52.95-2.03 1.18-2.27 2.3-4.57 3.45-6.85.36-.69.73-1.36 1.11-2.03 2.8-3.1 4.9-6.86 5.13-11.11.38-1.03.84-2.02 1.26-3.02 1.98-3.7 3.65-7.56 6.12-10.97l.95-2.02c.24-.5.72-1.51.96-2.01 1.18-2.44 2.58-4.75 4.12-6.97l.84-2.07c1-1.66 2.08-3.28 3.12-4.92.46-.98.91-1.95 1.37-2.93.85-1.37 1.76-2.7 2.57-4.08.94-1.72 2.01-3.35 2.99-5.03 1.52-2.77 3.43-5.28 5.02-8 3.52-6.02 7.68-11.64 11.45-17.5 2.63-3.77 4.88-7.82 7.92-11.29 1.69-2.9 3.81-5.49 5.75-8.22 4.32-5.94 8.78-11.76 13.31-17.56 8.53-10.17 16.65-20.7 26-30.13 1.45-1.86 2.75-3.85 4.5-5.45 10.43-10.25 20.62-20.74 31.08-30.95 4.86-3.05 8.05-8.02 12.84-11.14 23.74-21.07 49.42-39.95 76.27-56.88 2.72-1.59 5.23-3.5 8-5.02 1.68-.97 3.3-2.05 5-2.99 2.28-1.43 4.57-2.85 7.02-3.97 1.65-1 3.25-2.07 4.94-3.01 3.14-1.45 5.91-3.56 9.03-5.04.51-.24 1.52-.71 2.02-.95.5-.25 1.49-.75 1.98-1 1.35-.66 2.69-1.34 4.04-2.02.5-.23 1.5-.7 2-.93 1.64-1.04 3.24-2.13 4.92-3.11 1.36-.62 2.72-1.27 4.08-1.92.48-.28 1.45-.82 1.94-1.1 2.36-.94 4.77-1.77 7.06-2.89 1.98-1.02 3.98-2.03 5.97-3.04 1.34-.66 2.68-1.33 4.01-2.01.51-.24 1.52-.72 2.03-.96 1.72-.52 3.38-1.21 5-1.98.5-.26 1.49-.77 1.99-1.03 2.16-.58 4.18-1.58 6.17-2.59 1.66-.65 3.34-1.27 5-1.96 2.4-.88 4.76-1.87 7.01-3.1.95-.33 1.91-.65 2.88-.94 1.73-.63 3.45-1.27 5.13-2.01.94-.36 1.9-.69 2.87-1 1.72-.62 3.44-1.25 5.13-1.99.93-.37 1.89-.73 2.85-1.06.99-.34 1.99-.67 3-.98.99-.35 1.99-.68 3.01-1 .99-.35 1.99-.68 3-1 .99-.35 1.99-.68 3-1 .99-.34 1.99-.68 3-1 .99-.34 1.99-.68 2.99-.99.99-.36 1.99-.69 3-1.01.99-.35 2-.67 3.01-.99.98-.37 1.97-.73 2.97-1.08 1.31-.36 2.65-.62 3.99-.89 1-.36 2.01-.71 3.03-1.03.99-.37 1.98-.73 2.99-1.07 1.29-.37 2.61-.65 3.94-.94 1.31-.4 2.65-.71 4-1.02 1.33-.38 2.68-.66 4.05-.93.99-.39 2-.76 3.01-1.12 1.3-.36 2.62-.64 3.94-.93 1.31-.4 2.65-.72 3.99-1.05 1.61-.47 3.29-.66 4.95-.9 1.33-.42 2.7-.74 4.06-1.06 1.31-.39 2.64-.71 3.98-1.03 1.62-.47 3.29-.67 4.95-.94 1.61-.55 3.31-.73 4.99-.99 1.62-.55 3.32-.74 5.01-1 1.6-.57 3.31-.74 4.99-1 1.9-.78 3.96-.72 5.97-.92 1.87-.91 3.98-.78 6-1 1.87-.92 3.98-.78 6-.99 1.87-.94 3.98-.79 6-1 2.47-1.27 5.32-.65 7.98-.92 2.12-1.28 4.66-.78 7.01-1.02 3.18-1.95 7.26.28 10.41-1.75 2.53-.12 5.06-.1 7.59-.22 4.23-2.25 9.45.51 13.7-1.87m15.47 55.59c-72.25 3.22-144.11 20.08-209.44 51.34-6.55 3.03-13.17 5.94-19.41 9.58-47.18 24.97-91.1 56.44-128.95 94.14-33.74 32.89-63.43 70.07-87.25 110.76-51.34 86.03-78.55 186.42-77.1 286.61-.13 7.02 1.08 13.99.72 21.02 1.76 29.63 5.43 59.19 11.56 88.25 16.59 78.39 51.03 152.87 99.55 216.6 57.76 75.61 135.31 136.25 223.24 172.85 40.48 16.89 82.93 29.23 126.36 35.63 22.28 3.24 44.76 5.64 67.29 5.74 13.32 1.6 26.66-.26 40-.15 59.96-2.86 119.48-15.52 175.3-37.68 70.2-27.88 134.39-70.76 187-124.98 6.91-6.47 12.87-13.83 19.37-20.69 51.56-58.49 90.93-127.9 113.35-202.66 12.91-41.85 20.72-85.3 22.95-129.02 1.1-18.61 1.53-37.32.01-55.92.4-7.05-.99-14-1.09-21.03-3.2-35.11-9.13-70.04-18.85-103.95-23.19-82.33-66.22-158.96-124.25-221.79-6.16-5.57-10.92-12.5-17.44-17.67-29.16-29.3-62.03-54.85-97.02-76.85-73.73-45.71-158.72-72.94-245.19-79.36-20.19-1.31-40.49-2-60.71-.77z"/><path fill="#f5f5f5" d="M578.43 55.59c20.22-1.23 40.52-.54 60.71.77 86.47 6.42 171.46 33.65 245.19 79.36 34.99 22 67.86 47.55 97.02 76.85 6.52 5.17 11.28 12.1 17.44 17.67 58.03 62.83 101.06 139.46 124.25 221.79 9.72 33.91 15.65 68.84 18.85 103.95.1 7.03 1.49 13.98 1.09 21.03 1.52 18.6 1.09 37.31-.01 55.92-2.23 43.72-10.04 87.17-22.95 129.02-22.42 74.76-61.79 144.17-113.35 202.66-6.5 6.86-12.46 14.22-19.37 20.69-52.61 54.22-116.8 97.1-187 124.98-55.82 22.16-115.34 34.82-175.3 37.68-13.34-.11-26.68 1.75-40 .15-22.53-.1-45.01-2.5-67.29-5.74-43.43-6.4-85.88-18.74-126.36-35.63-87.93-36.6-165.48-97.24-223.24-172.85-48.52-63.73-82.96-138.21-99.55-216.6-6.13-29.06-9.8-58.62-11.56-88.25.36-7.03-.85-14-.72-21.02-1.45-100.19 25.76-200.58 77.1-286.61 23.82-40.69 53.51-77.87 87.25-110.76 37.85-37.7 81.77-69.17 128.95-94.14 6.24-3.64 12.86-6.55 19.41-9.58 65.33-31.26 137.19-48.12 209.44-51.34m1.55 247.4c-44.3 2.88-88.12 15.82-126.21 38.76-14.14 8.67-28.21 17.76-39.94 29.6 23.33 40.23 46.93 80.31 70.55 120.38-6.8 7.51-13.25 15.36-18.69 23.92-3.49 5.26-6.29 10.93-9.5 16.35-4.36-8.28-9.29-16.24-13.85-24.4-20.8-36.18-41.51-72.41-62.3-108.6-49.65 54.75-77.52 128.25-78.26 202.02.34 20.44 2.57 40.81 5.82 60.98-.17 1.94 2.11 1.34 3.35 1.45 16.67-.63 33.35-.33 50.03-.45 30.13.07 60.26-.14 90.39.11l.34-.01c4.05 10.88 9.77 21.08 16.23 30.7-50.34-.06-100.68-.07-151.01 0 12.89 41.42 34.98 79.99 64.34 111.95 6.87 7.75 14.67 14.59 21.99 21.91 14.98 13.89 32.06 25.28 49.73 35.44 13.64 7.76 28 14.39 43.06 18.87 1.58 1.16 2.5-.6 3.13-1.7 7.72-13.3 15.53-26.54 23.23-39.85 15.36-26.58 31.26-52.84 46.5-79.48 14.96 2.89 30.31 3.81 45.49 2.47-25.47 45.11-51.67 89.81-77.18 134.89 30.64 7.77 62.61 6.58 93.87 4.2 59.27-3.93 117.02-28.04 161.4-67.55-24.35-41.25-48.59-82.56-72.78-123.9 10.77-12.41 20.12-26.13 26.83-41.17 14.33 24.58 28.67 49.14 42.6 73.96 12.15 21.12 24.51 42.13 36.82 63.17 8.73-10.06 18.12-19.78 24.55-31.55 6.14-8.12 11.23-16.98 16.16-25.88 11.64-21.28 20.61-43.99 26.97-67.39 7.51-28.68 11.77-58.46 10.13-88.15-.78-17.04-3.25-33.94-5.33-50.86-49.6-.51-99.21.12-148.81-.32l-.39.01c-3.97-10.89-9.74-21.07-16.2-30.67 52.01.07 104.02.07 156.04 0-23.54-74.92-77.34-140.63-148.09-175.45-10.66-5.08-21.36-10.43-32.91-13.2-22.88 41.2-46.63 81.91-69.75 122.96l-.25-.06c-15.28-3.62-31.08-5.13-46.76-4.19 4.04-7.79 8.73-15.21 13.05-22.85 21.56-37.2 43.27-74.33 64.38-111.79-16.86-2.16-33.74-4.45-50.72-5.37-12.69-.76-25.38.11-38.05.74z"/><path fill="#f3f3f3" d="M1013 160.04c1.71.76 2.92 2.23 4.1 3.64-2.36.5-4.63-1.09-4.1-3.64z"/><path fill="#fcee21" d="M579.98 302.99c12.67-.63 25.36-1.5 38.05-.74 16.98.92 33.86 3.21 50.72 5.37-21.11 37.46-42.82 74.59-64.38 111.79-4.32 7.64-9.01 15.06-13.05 22.85-.25.02-.75.05-1 .07-39.82 2.43-78.59 20.39-105.83 49.6l-.11-.2c-23.62-40.07-47.22-80.15-70.55-120.38 11.73-11.84 25.8-20.93 39.94-29.6 38.09-22.94 81.91-35.88 126.21-38.76z"/><path fill="#ed7124" d="M708.08 323.55c11.55 2.77 22.25 8.12 32.91 13.2 70.75 34.82 124.55 100.53 148.09 175.45-52.02.07-104.03.07-156.04 0-.11-.15-.32-.46-.43-.61-22.03-32.29-56.28-55.91-94.28-65.08 23.12-41.05 46.87-81.76 69.75-122.96z"/><path fill="#f1f1f1" d="M1142.01 331.41c.82 1.34 1.58 2.72 2.33 4.11.67 1.47 1.34 2.94 1.97 4.45-3.09-1.76-4.07-5.24-4.3-8.56zM59.21 340.4c1.26-2.33 2.39-4.72 3.73-7-.23 4.25-2.33 8.01-5.13 11.11.14-.5.41-1.48.54-1.97.22-.53.64-1.61.86-2.14z"/><path fill="#35a849" d="M301.78 601.02c.74-73.77 28.61-147.27 78.26-202.02 20.79 36.19 41.5 72.42 62.3 108.6 4.56 8.16 9.49 16.12 13.85 24.4.05.11.16.32.21.42-18.36 36.54-21.19 80.26-8.96 119.17 1.25 3.86 2.64 7.67 3.93 11.52-30.13-.25-60.26-.04-90.39-.11-16.68.12-33.36-.18-50.03.45-1.24-.11-3.52.49-3.35-1.45-3.25-20.17-5.48-40.54-5.82-60.98z"/><path fill="#4b4b4b" d="M590.32 442.33c.25-.02.75-.05 1-.07 15.68-.94 31.48.57 46.76 4.19-12.27 21.92-24.96 43.61-37.12 65.58 41.35.49 82.71 0 124.07.25 2.53-.01 5.06-.32 7.58-.69.11.15.32.46.43.61 6.46 9.6 12.23 19.78 16.2 30.67-25.34.34-50.69-.07-76.03.24 10.92 18.96 21.7 38 32.8 56.85 8.93 14.87 17.43 30 26.1 45.03 4.89 8.16 9.2 16.69 14.58 24.55l-.15.34c-6.71 15.04-16.06 28.76-26.83 41.17l-.11-.18c-12.64-21.44-25.21-42.92-38-64.27-1.81 2.23-3.44 4.61-4.79 7.15-17.21 30.73-34.59 61.36-52.13 91.9-3.21 5.91-6.97 11.53-9.66 17.71-.16.01-.47.04-.62.05-15.18 1.34-30.53.42-45.49-2.47 13.27-22.17 26.56-44.34 39.02-66.98-23.3-.47-46.61-.11-69.91-.2-23.36.03-46.72-.06-70.08.04-6.46-9.62-12.18-19.82-16.23-30.7 26.87-.3 53.74.16 80.61-.12-2.96-6.55-6.9-12.58-10.51-18.77-11.26-19.08-23.04-37.86-33.89-57.18-10.45-18.24-20.79-36.54-31.52-54.61-.05-.1-.16-.31-.21-.42 3.21-5.42 6.01-11.09 9.5-16.35 5.44-8.56 11.89-16.41 18.69-23.92l.11.2c12.78 22.19 25.76 44.26 39.05 66.15 3.17-3.89 5.29-8.46 7.87-12.72 9.4-15.97 18.78-31.95 28.06-47.99 8.25-14.92 16.8-29.67 25.44-44.38 2.13-3.37 4.22-6.82 5.41-10.66m1.15 100.34c-12.22 1.82-23.79 7.57-32.65 16.16-10.44 9.95-17.18 23.7-18.52 38.07-1.47 14.37 2.29 29.25 10.61 41.08 8.07 11.68 20.35 20.4 34.09 24.02 14.58 3.89 30.64 2.11 43.92-5.12 13.39-7.15 23.9-19.5 28.78-33.88 4.41-12.83 4.41-27.13 0-39.96-5.38-15.77-17.53-29.11-32.78-35.86-10.41-4.67-22.18-6.22-33.45-4.51z"/><path fill="#4c4a21" d="M484.49 491.93c27.24-29.21 66.01-47.17 105.83-49.6-1.19 3.84-3.28 7.29-5.41 10.66-8.64 14.71-17.19 29.46-25.44 44.38-9.28 16.04-18.66 32.02-28.06 47.99-2.58 4.26-4.7 8.83-7.87 12.72-13.29-21.89-26.27-43.96-39.05-66.15z"/><path fill="#493122" d="M638.08 446.45l.25.06c38 9.17 72.25 32.79 94.28 65.08-2.52.37-5.05.68-7.58.69-41.36-.25-82.72.24-124.07-.25 12.16-21.97 24.85-43.66 37.12-65.58z"/><path fill="#253c29" d="M456.4 532.42c10.73 18.07 21.07 36.37 31.52 54.61 10.85 19.32 22.63 38.1 33.89 57.18 3.61 6.19 7.55 12.22 10.51 18.77-26.87.28-53.74-.18-80.61.12l-.34.01c-1.29-3.85-2.68-7.66-3.93-11.52-12.23-38.91-9.4-82.63 8.96-119.17z"/><path fill="#f5f5f5" d="M591.47 542.67c11.27-1.71 23.04-.16 33.45 4.51 15.25 6.75 27.4 20.09 32.78 35.86 4.41 12.83 4.41 27.13 0 39.96-4.88 14.38-15.39 26.73-28.78 33.88-13.28 7.23-29.34 9.01-43.92 5.12-13.74-3.62-26.02-12.34-34.09-24.02-8.32-11.83-12.08-26.71-10.61-41.08 1.34-14.37 8.08-28.12 18.52-38.07 8.86-8.59 20.43-14.34 32.65-16.16z"/><path fill="#432124" d="M673.21 543.11c25.34-.31 50.69.1 76.03-.24l.39-.01c6.36 17.01 10.69 34.89 11.23 53.09 1.16 25.2-3.67 50.65-14.17 73.59-5.38-7.86-9.69-16.39-14.58-24.55-8.67-15.03-17.17-30.16-26.1-45.03-11.1-18.85-21.88-37.89-32.8-56.85z"/><path fill="#cb202d" d="M749.63 542.86c49.6.44 99.21-.19 148.81.32 2.08 16.92 4.55 33.82 5.33 50.86 1.64 29.69-2.62 59.47-10.13 88.15-6.36 23.4-15.33 46.11-26.97 67.39-4.93 8.9-10.02 17.76-16.16 25.88-6.43 11.77-15.82 21.49-24.55 31.55-12.31-21.04-24.67-42.05-36.82-63.17-13.93-24.82-28.27-49.38-42.6-73.96l.15-.34c10.5-22.94 15.33-48.39 14.17-73.59-.54-18.2-4.87-36.08-11.23-53.09z"/><path fill="#2d2335" d="M676.81 653.75c1.35-2.54 2.98-4.92 4.79-7.15 12.79 21.35 25.36 42.83 38 64.27-26.52 29.9-64.76 49.07-104.58 52.49 2.69-6.18 6.45-11.8 9.66-17.71 17.54-30.54 34.92-61.17 52.13-91.9z"/><path fill="#085ba7" d="M316.93 693.8c50.33-.07 100.67-.06 151.01 0 23.22 34.39 60.25 59.08 100.97 67.14-15.24 26.64-31.14 52.9-46.5 79.48-7.7 13.31-15.51 26.55-23.23 39.85-.63 1.1-1.55 2.86-3.13 1.7-15.06-4.48-29.42-11.11-43.06-18.87-17.67-10.16-34.75-21.55-49.73-35.44-7.32-7.32-15.12-14.16-21.99-21.91-29.36-31.96-51.45-70.53-64.34-111.95z"/><path fill="#1c2d3c" d="M467.94 693.8c23.36-.1 46.72-.01 70.08-.04 23.3.09 46.61-.27 69.91.2-12.46 22.64-25.75 44.81-39.02 66.98-40.72-8.06-77.75-32.75-100.97-67.14z"/><path fill="#5f2c83" d="M719.6 710.87l.11.18c24.19 41.34 48.43 82.65 72.78 123.9-44.38 39.51-102.13 63.62-161.4 67.55-31.26 2.38-63.23 3.57-93.87-4.2 25.51-45.08 51.71-89.78 77.18-134.89.15-.01.46-.04.62-.05 39.82-3.42 78.06-22.59 104.58-52.49z"/><path fill="#f4f4f4" d="M1013.8 1045.02c-.55-2.11 1.59-3.28 3.42-2.81-.92 1.17-1.92 2.39-3.42 2.81zm-824.02-1.84c2.01-.67 3.78.88 3.23 2.98-1.34-.69-2.38-1.78-3.23-2.98z"/></svg>