<svg xmlns="http://www.w3.org/2000/svg" viewBox="0 0 512 512"><path d="M955.19-89.12c1.71.76 2.92 2.23 4.1 3.64-2.36.5-4.63-1.09-4.1-3.64z" fill="#f3f3f3"/><path d="M955.99 795.86c-.55-2.11 1.59-3.28 3.42-2.81-.92 1.17-1.92 2.39-3.42 2.81zm-824.02-1.84c2.01-.67 3.78.88 3.23 2.98-1.34-.69-2.38-1.78-3.23-2.98z" fill="#f4f4f4"/><g transform="translate(3 77.213) scale(.84333)"><path d="M360.394-81.917C332.176-34.178 310.797 7.886 286.16 51.626c-38.852 5.81-87.766 35.358-108.462 53.536-23.27-39.522-47.319-80.984-72.065-121.732 48.75-44.512 145.286-87.984 254.761-65.347z" fill="#fcee21"/><path d="M585.941 121.39a63184.8 63184.8 0 0 1-162.904-.018c-26.67-31.213-61.232-56.836-94.452-65.342 23.084-40.89 47.898-86.085 70.744-127.125 75.877 25.617 155.261 90.42 186.612 192.486z" fill="#ed7124"/><path d="M78.958 9.17c27.048 46.86 52.248 90.395 75.86 129.989-17.584 46.554-19.429 90.024-5.9 130.23-50.04.125-100.355.347-143.226.41-17.334-90.382 6.06-188.551 73.266-260.63z" fill="#35a849"/><path d="M331.618 50.646c39.7 5.695 90.586 40.866 105.695 70.748-44.912-.15-107.006-.198-146.153-.135 13.192-22.859 29.853-51.82 40.458-70.613z" fill="#cd5911"/><path d="M234.715 269.473c-28.712.242-63.776.092-89.229-.09-17.285-42.947-11.055-100.462 8.472-131.656 27.3 45.036 56.142 92.792 80.757 131.746z" fill="#298138"/><path d="M444.344 158.743c49.347.175 101.697.11 150.938.113 18.912 93.176-15.004 195.992-76.919 258.997-27.185-46.24-51.866-89.439-77.095-132.613l.15-.34c10.485-22.85 15.306-48.2 14.153-73.303-1.531-18.873-5.622-37.733-11.227-52.854z" fill="#cb202d"/><path d="M367.352 158.939c26.614.068 65.477-.264 88.655-.172 17.291 42.172 7.163 95.713-11.41 132.164-24.437-42.171-54.894-93.243-77.245-131.992z" fill="#9f1923"/><path d="M165.551 305.827c23.184 34.257 60.157 58.85 100.814 66.88-25.464 42.621-47.314 80.025-70.74 120.477C108.02 463.19 42.056 388.03 15.05 305.822a79196.89 79196.89 0 0 1 150.5.005z" fill="#085ba7"/><path d="M418.737 319.328l.11.18c24.153 41.18 48.356 82.328 72.668 123.418-71.641 59.524-168.65 81.977-254.913 62.306 25.735-44.76 51.465-88.751 77.103-133.568 41.19-8.196 81.388-26.52 105.046-52.336z" fill="#5f2c83"/><path d="M164.496 305.822c47.886.079 95.948-.024 140.829.009-12.442 22.552-39.753 68.221-39.3 67.463-40.85-7.405-79.046-31.74-101.53-67.472z" fill="#064076"/><path d="M380.797 255.307c12.77 21.268 27.863 46.872 40.484 68.227-26.416 30.286-70.536 50.076-110.301 52.908 21.612-38.994 48.471-86.745 69.817-121.135z" fill="#431f5d"/><ellipse ry="59.777" rx="59.861" cy="212.001" cx="300.001" fill="#e3018f"/><path d="M288.47 47.639c-22.376 38.536-52.246 89.024-71.803 122.212-13.891-22.894-28.313-46.46-40.324-66.915 15.85-17.392 51.175-48.759 112.127-55.297z" fill="#e7d803"/></g></svg>