<svg xmlns="http://www.w3.org/2000/svg" viewBox="0 0 600 600"><path fill="#f3f3f3" d="M955.19-1.12c1.71.76 2.92 2.23 4.1 3.64-2.36.5-4.63-1.09-4.1-3.64z"/><path fill="#f4f4f4" d="M955.99 883.86c-.55-2.11 1.59-3.28 3.42-2.81-.92 1.17-1.92 2.39-3.42 2.81zm-824.02-1.84c2.01-.67 3.78.88 3.23 2.98-1.34-.69-2.38-1.78-3.23-2.98z"/><path fill="#fcee21" d="M277.12 1.032c12.62-.627 25.26-1.494 37.902-.737 16.937.588 32.84 3.923 49.534 7.468-26.03 49.153-53.24 88.17-76.14 131.998-.25.02-.748.05-.997.07-39.67 2.42-78.29 20.32-105.42 49.41l-.11-.2c-23.53-39.91-47.04-79.84-70.28-119.91 11.68-11.79 25.7-20.85 39.78-29.48C189.33 16.8 232.98 3.91 277.11 1.04z"/><path fill="#ed7124" d="M404.722 21.512c11.505 2.76 22.164 8.09 32.782 13.15C507.98 69.345 561.57 134.8 585.02 209.428c-51.82.07-103.627.07-155.435 0-.11-.15-.32-.46-.428-.608-21.945-32.165-56.062-55.693-93.914-64.827 23.03-40.89 46.688-81.443 69.48-122.483z"/><path fill="#35a849" d="M.442 297.55C1.18 224.068 28.5 151.208 77.956 96.67c26.36 48.527 52.67 88.722 75.854 132.483.05.11.16.318.21.418-18.29 36.4-21.108 79.95-8.926 118.71 1.245 3.85 2.63 7.64 3.915 11.48-49.86-.5-100.12.66-142.89.41C2.79 338.78.81 316.1.44 297.56z"/><path fill="#4b4b4b" d="M287.42 139.83c.248-.02.746-.05.995-.07 15.62-.935 31.358.57 46.58 4.175-12.223 21.835-24.864 43.44-36.977 65.325 41.19.488 82.39 0 123.588.25 2.52-.01 5.04-.32 7.55-.688.11.15.32.458.43.608 6.434 9.562 12.182 19.703 16.136 30.55-25.24.34-50.493-.07-75.735.24 10.878 18.886 21.616 37.852 32.673 56.63 8.895 14.81 17.362 29.882 26 44.854 4.87 8.128 9.163 16.625 14.522 24.454l-.15.34c-6.683 14.98-15.997 28.647-26.725 41.01l-.11-.18c-12.59-21.357-25.112-42.753-37.852-64.02-1.803 2.22-3.427 4.592-4.772 7.122-17.143 30.61-34.455 61.12-51.927 91.543-3.198 5.887-6.943 11.485-9.623 17.64-.16.01-.468.04-.617.05-15.12 1.336-30.412.42-45.313-2.46 13.218-22.083 26.456-44.167 38.868-66.72-23.21-.468-46.42-.11-69.63-.2-23.27.03-46.54-.058-69.8.04-6.43-9.58-12.13-19.742-16.16-30.58 26.765-.298 53.53.16 80.297-.12-2.95-6.524-6.876-12.53-10.47-18.696-11.22-19.006-22.95-37.713-33.76-56.958-10.41-18.17-20.71-36.4-31.4-54.4-.05-.1-.16-.31-.21-.42 3.2-5.4 5.99-11.05 9.464-16.29 5.42-8.53 11.844-16.35 18.618-23.83l.11.2c12.73 22.1 25.66 44.09 38.9 65.89 3.16-3.88 5.27-8.43 7.84-12.67 9.366-15.91 18.71-31.83 27.95-47.81 8.22-14.86 16.738-29.56 25.34-44.21 2.126-3.36 4.208-6.798 5.39-10.62m1.15 99.95c-12.176 1.81-23.7 7.54-32.526 16.094-10.4 9.915-17.116 23.61-18.45 37.926-1.466 14.315 2.28 29.137 10.567 40.92 8.04 11.636 20.27 20.32 33.956 23.928 14.524 3.877 30.52 2.1 43.75-5.1 13.338-7.12 23.808-19.423 28.67-33.75 4.39-12.78 4.39-27.02 0-39.8-5.36-15.71-17.463-29-32.654-35.72-10.37-4.655-22.094-6.2-33.32-4.496z"/><path fill="#3c3a2b" d="M182 189.238c27.135-29.096 65.754-46.987 105.42-49.407-1.186 3.83-3.268 7.27-5.39 10.62-8.606 14.66-17.123 29.35-25.34 44.21-9.245 15.98-18.588 31.9-27.952 47.81-2.57 4.25-4.682 8.8-7.84 12.67-13.238-21.81-26.168-43.79-38.898-65.9z"/><path fill="#493122" d="M334.994 143.935l.25.06c37.85 9.134 71.968 32.662 93.913 64.827-2.51.368-5.03.677-7.55.687-41.2-.25-82.4.23-123.59-.25 12.114-21.89 24.755-43.49 36.977-65.33z"/><path fill="#253c29" d="M154.02 229.57c10.688 18 20.988 36.23 31.397 54.4 10.808 19.244 22.542 37.95 33.758 56.957 3.596 6.166 7.52 12.172 10.47 18.697-26.766.28-53.532-.18-80.297.12l-.34.01c-1.284-3.836-2.67-7.63-3.914-11.476-12.182-38.76-9.363-82.31 8.925-118.707z"/><path fill="#f5f5f5" d="M288.565 239.78c11.226-1.702 22.95-.158 33.32 4.494 15.19 6.723 27.294 20.012 32.653 35.72 4.393 12.78 4.393 27.025 0 39.805-4.86 14.32-15.33 26.62-28.67 33.74-13.227 7.2-29.225 8.97-43.748 5.1-13.687-3.61-25.92-12.29-33.958-23.93-8.287-11.79-12.033-26.61-10.568-40.92 1.334-14.32 8.048-28.01 18.448-37.93 8.825-8.56 20.35-14.288 32.523-16.1z"/><path fill="#432124" d="M369.987 240.22c25.242-.31 50.494.1 75.735-.24l.39-.01c6.334 16.944 10.647 34.755 11.185 52.884 1.156 25.102-3.656 50.453-14.115 73.304-5.36-7.83-9.652-16.326-14.523-24.454-8.64-14.972-17.11-30.043-26-44.855-11.06-18.78-21.8-37.75-32.68-56.63z"/><path fill="#cb202d" d="M446.11 239.97c49.408.44 98.825-.19 148.233.32 2.072 16.853 4.108 33.547 4.885 50.52 1.634 29.575-2.186 59.38-9.667 87.95-6.33 23.308-15.27 45.93-26.86 67.128-11.31 21.175-25.95 40.443-40.55 57.206-27.37-46.365-53.94-93.423-79.11-136.597l.15-.34c10.46-22.85 15.27-48.2 14.12-73.303-.54-18.13-4.85-35.94-11.18-52.884z"/><path fill="#2d2335" d="M373.573 350.43c1.345-2.53 2.97-4.9 4.772-7.123 12.74 21.268 25.26 42.664 37.852 64.02-26.417 29.785-64.508 48.88-104.174 52.287 2.68-6.156 6.425-11.754 9.623-17.64 17.472-30.423 34.784-60.934 51.927-91.544z"/><path fill="#085ba7" d="M15.09 390.324c50.136-.07 100.28-.06 150.425 0 23.13 34.257 60.016 58.85 100.578 66.88-26.905 41.296-44.6 82.076-70.797 120.848-15.94-4.554-32.21-12.055-44.673-19.086-17.602-10.12-34.615-21.466-49.537-35.302-7.292-7.29-15.06-14.105-21.905-21.825C49.94 470 27.93 431.58 15.09 390.32z"/><path fill="#1c2d3c" d="M165.515 390.324c23.27-.1 46.538-.01 69.807-.04 23.21.09 46.43-.27 69.64.2-12.413 22.552-25.65 44.636-38.87 66.72-40.56-8.03-77.448-32.623-100.577-66.88z"/><path fill="#5f2c83" d="M416.197 407.328l.11.18c24.096 41.18 48.242 82.328 72.497 123.418-44.207 39.356-101.733 63.373-160.773 67.288-31.13 2.37-62.98 3.556-93.5-4.184 25.41-44.905 51.51-89.43 76.88-134.366.15-.01.46-.04.62-.05 39.67-3.407 77.76-22.502 104.18-52.286z"/><path fill="#4b4b4b" d="M287.42 139.83c.248-.02.746-.05.995-.07 15.62-.935 31.358.57 46.58 4.175-12.223 21.835-24.864 43.44-36.977 65.325 41.19.488 82.39 0 123.588.25 2.52-.01 5.04-.32 7.55-.688.11.15.32.458.43.608 6.434 9.562 12.182 19.703 16.136 30.55-25.24.34-50.493-.07-75.735.24 10.878 18.886 21.616 37.852 32.673 56.63 8.895 14.81 17.362 29.882 26 44.854 4.87 8.128 9.163 16.625 14.522 24.454l-.15.34c-6.683 14.98-15.997 28.647-26.725 41.01l-.11-.18c-12.59-21.357-25.112-42.753-37.852-64.02-1.803 2.22-3.427 4.592-4.772 7.122-17.143 30.61-34.455 61.12-51.927 91.543-3.198 5.887-6.943 11.485-9.623 17.64-.16.01-.468.04-.617.05-15.12 1.336-30.412.42-45.313-2.46 13.218-22.083 26.456-44.167 38.868-66.72-23.21-.468-46.42-.11-69.63-.2-23.27.03-46.54-.058-69.8.04-6.43-9.58-12.13-19.742-16.16-30.58 26.765-.298 53.53.16 80.297-.12-2.95-6.524-6.876-12.53-10.47-18.696-11.22-19.006-22.95-37.713-33.76-56.958-10.41-18.17-20.71-36.4-31.4-54.4-.05-.1-.16-.31-.21-.42 3.2-5.4 5.99-11.05 9.464-16.29 5.42-8.53 11.844-16.35 18.618-23.83l.11.2c12.73 22.1 25.66 44.09 38.9 65.89 3.16-3.88 5.27-8.43 7.84-12.67 9.366-15.91 18.71-31.83 27.95-47.81 8.22-14.86 16.738-29.56 25.34-44.21 2.126-3.36 4.208-6.798 5.39-10.62m1.15 99.95c-12.176 1.81-23.7 7.54-32.526 16.094-10.4 9.915-17.116 23.61-18.45 37.926-1.466 14.315 2.28 29.137 10.567 40.92 8.04 11.636 20.27 20.32 33.956 23.928 14.524 3.877 30.52 2.1 43.75-5.1 13.338-7.12 23.808-19.423 28.67-33.75 4.39-12.78 4.39-27.02 0-39.8-5.36-15.71-17.463-29-32.654-35.72-10.37-4.655-22.094-6.2-33.32-4.496z"/></svg>